Coordinates
version=1
nRows=54
nColumns=12
inDegrees=yes

Units are S.I. units (second, meters, Newtons, ...)
Angles are in degrees

endheader
time	SC_y	SC_z	SC_x	AC_y	AC_z	AC_x	GH_y	GH_z	GH_yy	EL_x	PS_y
       0.0              -47.98          12.26          31.55          44.28         -9.724          15.31         -114.5         -6.637          168.1          130.3          16.04
    0.0248              -47.98          12.25          31.55          44.28         -9.725           15.3         -114.5         -6.624          168.1          130.2          16.05
   0.04961              -47.98          12.25          31.54          44.29         -9.725           15.3         -114.5         -6.609          168.1          130.2          16.06
   0.07441              -47.98          12.25          31.54          44.29         -9.726          15.29         -114.5         -6.594          168.1          130.2          16.07
   0.09921              -47.98          12.25          31.54          44.29         -9.727          15.29         -114.5         -6.577          168.1          130.2          16.08
     0.124              -47.97          12.25          31.54          44.29         -9.728          15.28         -114.4          -6.56          168.1          130.2           16.1
    0.1488              -47.97          12.25          31.54          44.29         -9.729          15.27         -114.4         -6.541          168.1          130.2          16.11
    0.1736              -47.97          12.25          31.54           44.3          -9.73          15.27         -114.4         -6.521          168.1          130.2          16.13
    0.1984              -47.97          12.25          31.53           44.3         -9.731          15.26         -114.4         -6.499          168.1          130.2          16.15
    0.2232              -47.97          12.24          31.53           44.3         -9.732          15.25         -114.4         -6.477          168.0          130.2          16.16
     0.248              -47.96          12.24          31.53           44.3         -9.733          15.24         -114.4         -6.452          168.0          130.1          16.18
    0.2728              -47.96          12.24          31.53          44.31         -9.735          15.23         -114.3         -6.425          168.0          130.1          16.21
    0.2976              -47.96          12.24          31.52          44.31         -9.736          15.22         -114.3         -6.397          168.0          130.1          16.23
    0.3224              -47.95          12.24          31.52          44.31         -9.738          15.21         -114.3         -6.366          168.0          130.1          16.25
    0.3472              -47.95          12.23          31.52          44.32         -9.739           15.2         -114.3         -6.332          168.0          130.1          16.28
    0.3721              -47.95          12.23          31.51          44.32         -9.741          15.19         -114.2         -6.296          167.9          130.1          16.31
    0.3969              -47.94          12.23          31.51          44.33         -9.743          15.17         -114.2         -6.256          167.9          130.0          16.34
    0.4217              -47.94          12.23           31.5          44.33         -9.745          15.16         -114.2         -6.213          167.9          130.0          16.37
    0.4465              -47.94          12.22           31.5          44.34         -9.748          15.14         -114.1         -6.166          167.9          130.0          16.41
    0.4713              -47.93          12.22          31.49          44.34          -9.75          15.12         -114.1         -6.115          167.8          129.9          16.45
    0.4961              -47.93          12.22          31.49          44.35         -9.753           15.1         -114.0         -6.059          167.8          129.9           16.5
    0.5209              -47.92          12.21          31.48          44.35         -9.756          15.08         -114.0         -5.996          167.8          129.9          16.55
    0.5457              -47.91          12.21          31.47          44.36          -9.76          15.06         -113.9         -5.928          167.7          129.8           16.6
    0.5705               -47.9           12.2          31.47          44.37         -9.764          15.03         -113.9         -5.852          167.7          129.8          16.66
    0.5953               -47.9          12.19          31.46          44.38         -9.768           15.0         -113.8         -5.767          167.6          129.7          16.73
    0.6201              -47.89          12.19          31.45          44.39         -9.773          14.97         -113.7         -5.673          167.6          129.7          16.81
    0.6449              -47.88          12.18          31.44           44.4         -9.778          14.93         -113.7         -5.567          167.5          129.6          16.89
    0.6697              -47.87          12.17          31.42          44.42         -9.784          14.89         -113.6         -5.448          167.4          129.5          16.98
    0.6945              -47.85          12.16          31.41          44.43         -9.791          14.84         -113.4         -5.314          167.4          129.5          17.09
    0.7193              -47.84          12.15          31.39          44.45         -9.799          14.79         -113.3         -5.162          167.3          129.4          17.21
    0.7441              -47.82          12.14          31.38          44.47         -9.807          14.73         -113.2         -4.988          167.2          129.3          17.35
    0.7689               -47.8          12.13          31.36          44.49         -9.817          14.66         -113.0         -4.788          167.1          129.1          17.51
    0.7937              -47.78          12.11          31.33          44.51         -9.829          14.58         -112.8         -4.557          166.9          129.0           17.7
    0.8185              -47.75          12.09           31.3          44.54         -9.843          14.48         -112.6         -4.289          166.8          128.8          17.91
    0.8433              -47.72          12.07          31.27          44.58         -9.859          14.37         -112.4         -3.976          166.6          128.7          18.16
    0.8681              -47.69          12.04          31.23          44.62         -9.877          14.24         -112.1         -3.606          166.4          128.4          18.45
    0.8929              -47.64          12.01          31.19          44.67         -9.899          14.09         -111.7         -3.167          166.1          128.2          18.81
    0.9177              -47.59          11.98          31.13          44.73         -9.926           13.9         -111.3         -2.641          165.8          127.9          19.23
    0.9425              -47.53          11.93          31.07           44.8         -9.958          13.68         -110.8         -2.004          165.4          127.5          19.73
    0.9673              -47.45          11.88          30.98          44.89         -9.998           13.4         -110.2         -1.226          165.0          127.0          20.35
    0.9921              -47.36          11.81          30.88          44.99         -10.05          13.07         -109.4        -0.2654          164.4          126.4          21.12
     1.017              -47.24          11.72          30.76          45.13         -10.11          12.64         -108.5          0.932          163.7          125.7          22.08
     1.042               -47.1          11.62           30.6          45.29         -10.18          12.11         -107.3           2.44          162.8          124.8          23.28
     1.067              -46.91          11.48           30.4          45.51         -10.28          11.44         -105.7          4.358          161.7          123.7          24.81
     1.091              -46.67          11.31          30.15          45.78          -10.4          10.58         -103.8          6.812          160.3          122.2          26.77
     1.116              -46.36          11.09          29.82          46.13         -10.56          9.468         -101.3          9.962          158.5          120.3          29.28
     1.141              -45.97          10.81           29.4          46.58         -10.77          8.053         -98.06          13.99          156.1          117.9          32.49
     1.166              -45.48          10.45          28.87          47.14         -11.02          6.274         -94.03          19.04          153.1          114.9          36.53
     1.191              -44.88          10.02          28.23          47.83         -11.33          4.106         -89.11          25.21          149.6          111.2          41.45
     1.215              -44.18          9.521          27.49          48.63          -11.7          1.593         -83.42          32.35          145.4          106.9          47.15
      1.24              -43.43          8.979          26.68          49.49         -12.09         -1.129         -77.25          40.09          140.9          102.2          53.33
     1.265              -42.67          8.436          25.88          50.35         -12.48          -3.85         -71.08          47.83          136.4          97.59           59.5
      1.29              -41.98          7.935          25.13          51.14         -12.84         -6.363         -65.38          54.98          132.2           93.3          65.21
     1.315              -41.38          7.503          24.49          51.83         -13.15         -8.531         -60.47          61.14          128.6          89.61          70.13
